<svg width="429" height="67" viewBox="0 0 429 67" fill="none" xmlns="http://www.w3.org/2000/svg">
    <g clip-path="url(#clip0_1028_2)">
        <path d="M61.2816 2.73565e-05H47.4077C46.3225 -0.00386699 45.277 0.408155 44.4862 1.15139C43.6954 1.89462 43.2194 2.91257 43.1561 3.99596H33.9814C33.5104 3.95843 33.0368 4.021 32.5917 4.17955C32.1466 4.3381 31.7402 4.58904 31.399 4.91589C31.0578 5.24273 30.7896 5.63808 30.6121 6.07594C30.4346 6.51381 30.3518 6.98428 30.3691 7.45644V10.3895C30.3691 10.6014 30.4533 10.8047 30.6031 10.9546C30.753 11.1044 30.9563 11.1886 31.1682 11.1886C31.3802 11.1886 31.5835 11.1044 31.7334 10.9546C31.8832 10.8047 31.9674 10.6014 31.9674 10.3895V7.45644C31.9534 7.19494 31.9972 6.93356 32.0957 6.69091C32.1941 6.44825 32.3449 6.23027 32.5372 6.05249C32.7294 5.87471 32.9585 5.74148 33.2082 5.66229C33.4578 5.58311 33.7218 5.5599 33.9814 5.59434H43.1561V12.787H37.5617C37.3498 12.787 37.1465 12.8712 36.9966 13.0211C36.8468 13.171 36.7626 13.3742 36.7626 13.5862C36.7626 13.7982 36.8468 14.0014 36.9966 14.1513C37.1465 14.3012 37.3498 14.3854 37.5617 14.3854H43.1561V18.1256C43.1522 19.2108 43.5642 20.2563 44.3074 21.0471C45.0506 21.8379 46.0686 22.3139 47.152 22.3773V31.7277C47.152 33.7497 48.7024 35.1643 50.9162 35.1643H53.5455C53.7574 35.1643 53.9607 35.0801 54.1106 34.9302C54.2605 34.7803 54.3447 34.577 54.3447 34.3651C54.3447 34.1531 54.2605 33.9498 54.1106 33.8C53.9607 33.6501 53.7574 33.5659 53.5455 33.5659H50.9162C49.9172 33.5659 48.7504 33.0864 48.7504 31.7277V22.3773H55.943V27.9716C55.943 28.1835 56.0272 28.3868 56.1771 28.5367C56.327 28.6866 56.5303 28.7708 56.7422 28.7708C56.9542 28.7708 57.1575 28.6866 57.3073 28.5367C57.4572 28.3868 57.5414 28.1835 57.5414 27.9716V22.3773H61.2816C62.4086 22.3751 63.4888 21.9265 64.2857 21.1296C65.0825 20.3328 65.5312 19.2526 65.5333 18.1256V4.2517C65.5312 3.12474 65.0825 2.04453 64.2857 1.24765C63.4888 0.450761 62.4086 0.00213976 61.2816 2.73565e-05ZM63.9349 18.1256C63.9349 18.8293 63.6554 19.5042 63.1578 20.0018C62.6602 20.4993 61.9853 20.7789 61.2816 20.7789H47.4077C46.704 20.7789 46.0291 20.4993 45.5316 20.0018C45.034 19.5042 44.7544 18.8293 44.7544 18.1256V4.2517C44.7544 3.548 45.034 2.87313 45.5316 2.37553C46.0291 1.87794 46.704 1.5984 47.4077 1.5984H61.2816C61.9853 1.5984 62.6602 1.87794 63.1578 2.37553C63.6554 2.87313 63.9349 3.548 63.9349 4.2517V18.1256Z" fill="#501EE5"/>
        <path d="M34.365 11.1886C34.1531 11.1886 33.9498 11.2728 33.7999 11.4227C33.65 11.5726 33.5658 11.7758 33.5658 11.9878V14.6171C33.5856 14.8938 33.5482 15.1716 33.4559 15.4333C33.3637 15.6949 33.2186 15.9347 33.0297 16.1379C32.8408 16.341 32.6121 16.5031 32.3579 16.6141C32.1037 16.7251 31.8293 16.7825 31.5519 16.7829H22.3772V9.59024H27.9715C28.1835 9.59024 28.3868 9.50604 28.5366 9.35617C28.6865 9.20629 28.7707 9.00301 28.7707 8.79106C28.7707 8.5791 28.6865 8.37582 28.5366 8.22594C28.3868 8.07607 28.1835 7.99187 27.9715 7.99187H22.3772V4.25167C22.3751 3.12471 21.9265 2.04451 21.1296 1.24762C20.3327 0.450734 19.2525 0.00211241 18.1256 0H4.25167C3.12471 0.00211241 2.04451 0.450734 1.24762 1.24762C0.450734 2.04451 0.00211241 3.12471 0 4.25167V18.1256C0.00211241 19.2525 0.450734 20.3327 1.24762 21.1296C2.04451 21.9265 3.12471 22.3751 4.25167 22.3772H18.1256C19.2108 22.3811 20.2563 21.9691 21.0471 21.2259C21.8379 20.4826 22.3139 19.4647 22.3772 18.3813H31.5519C32.0397 18.3829 32.5226 18.2854 32.9716 18.0948C33.4206 17.9043 33.8263 17.6246 34.164 17.2726C34.5017 16.9207 34.7645 16.5039 34.9364 16.0475C35.1084 15.591 35.1859 15.1044 35.1642 14.6171V11.9878C35.1642 11.7758 35.08 11.5726 34.9301 11.4227C34.7803 11.2728 34.577 11.1886 34.365 11.1886ZM20.7789 18.1256C20.7789 18.8293 20.4993 19.5041 20.0017 20.0017C19.5041 20.4993 18.8293 20.7789 18.1256 20.7789H4.25167C3.54797 20.7789 2.8731 20.4993 2.37551 20.0017C1.87792 19.5041 1.59837 18.8293 1.59837 18.1256V4.25167C1.59837 3.54797 1.87792 2.8731 2.37551 2.37551C2.8731 1.87792 3.54797 1.59837 4.25167 1.59837H18.1256C18.8293 1.59837 19.5041 1.87792 20.0017 2.37551C20.4993 2.8731 20.7789 3.54797 20.7789 4.25167V18.1256Z" fill="#501EE5"/>
        <path d="M61.5374 43.9553V34.1493C61.5374 31.9675 60.0829 30.3691 58.0769 30.3691H55.1439C54.932 30.3691 54.7287 30.4533 54.5788 30.6032C54.4289 30.7531 54.3447 30.9564 54.3447 31.1683C54.3447 31.3803 54.4289 31.5836 54.5788 31.7334C54.7287 31.8833 54.932 31.9675 55.1439 31.9675H58.0769C59.4515 31.9675 59.9391 33.1423 59.9391 34.1493V43.9553H52.7464V37.5618C52.7464 37.3499 52.6622 37.1466 52.5123 36.9967C52.3624 36.8468 52.1591 36.7626 51.9472 36.7626C51.7352 36.7626 51.5319 36.8468 51.3821 36.9967C51.2322 37.1466 51.148 37.3499 51.148 37.5618V43.9553H47.4078C46.2808 43.9574 45.2006 44.4061 44.4037 45.2029C43.6069 45.9998 43.1582 47.08 43.1561 48.207V62.0809C43.1582 63.2078 43.6069 64.288 44.4037 65.0849C45.2006 65.8818 46.2808 66.3304 47.4078 66.3326H61.2817C62.4087 66.3304 63.4889 65.8818 64.2857 65.0849C65.0826 64.288 65.5312 63.2078 65.5334 62.0809V48.207C65.5373 47.1218 65.1252 46.0763 64.382 45.2855C63.6388 44.4947 62.6208 44.0187 61.5374 43.9553ZM63.935 62.0569C63.9382 62.4074 63.8719 62.755 63.7399 63.0796C63.608 63.4043 63.4131 63.6997 63.1664 63.9486C62.9197 64.1975 62.6261 64.3951 62.3026 64.5299C61.9791 64.6648 61.6321 64.7342 61.2817 64.7342H47.4078C46.7041 64.7342 46.0292 64.4546 45.5316 63.957C45.034 63.4595 44.7545 62.7846 44.7545 62.0809V48.207C44.7545 47.5033 45.034 46.8284 45.5316 46.3308C46.0292 45.8332 46.7041 45.5537 47.4078 45.5537H61.2817C61.9854 45.5537 62.6603 45.8332 63.1579 46.3308C63.6554 46.8284 63.935 47.5033 63.935 48.207V62.0569Z" fill="#501EE5"/>
        <path d="M107.652 23.6293C109.097 25.341 109.82 27.7823 109.82 30.9532V44.633H103.422V30.9532C103.422 29.2976 103.008 28.105 102.18 27.3754C101.352 26.6458 100.265 26.281 98.9178 26.281C97.7673 26.281 96.7291 26.737 95.803 27.649C94.877 28.561 94.4421 30.1394 94.4982 32.3843V44.633H88.2266V12.7697H94.4982V23.5451C95.2559 22.7874 96.2099 22.1841 97.3604 21.7352C98.5109 21.2862 99.6193 21.0617 100.686 21.0617C103.885 21.0617 106.207 21.9176 107.652 23.6293ZM115.923 35.2466V21.5668H122.279V35.2466C122.279 36.9022 122.693 38.0877 123.52 38.8033C124.348 39.5188 125.436 39.8766 126.782 39.8766C127.961 39.8766 129.013 39.4206 129.939 38.5087C130.865 37.5967 131.286 36.0323 131.202 33.8154V21.5668H137.516V44.633H131.202V42.6547C130.444 43.4404 129.525 44.0507 128.445 44.4857C127.365 44.9206 126.221 45.1381 125.015 45.1381C118.953 45.1381 115.923 41.8409 115.923 35.2466ZM178.197 23.6714C179.783 25.4112 180.575 27.8384 180.575 30.9532V44.633H174.22V30.9532C174.22 29.2976 173.806 28.105 172.978 27.3754C172.15 26.6458 171.063 26.281 169.716 26.281C168.593 26.281 167.583 26.702 166.685 27.5438C165.787 28.3856 165.324 29.7887 165.296 31.753V44.633H158.94V30.9532C158.94 29.2976 158.527 28.105 157.699 27.3754C156.871 26.6458 155.798 26.281 154.479 26.281C153.272 26.281 152.227 26.73 151.343 27.628C150.459 28.5259 150.017 30.1114 150.017 32.3843L149.975 44.633H143.703V21.4826H149.975V23.5872C150.789 22.8576 151.771 22.2543 152.921 21.7773C154.072 21.3002 155.124 21.0617 156.078 21.0617C159.333 21.0617 161.817 22.114 163.528 24.2186C164.398 23.2364 165.479 22.4647 166.769 21.9035C168.06 21.3423 169.463 21.0617 170.979 21.0617C174.206 21.0617 176.612 21.9316 178.197 23.6714ZM204.652 42.3179C204.119 43.0475 203.2 43.6999 201.895 44.2752C200.59 44.8504 199.166 45.1381 197.623 45.1381C195.237 45.1381 193.168 44.6049 191.414 43.5386C189.66 42.4723 188.32 41.0201 187.394 39.1821C186.468 37.3441 186.005 35.3027 186.005 33.0578C186.005 30.8129 186.468 28.7715 187.394 26.9335C188.32 25.0955 189.66 23.6433 191.414 22.577C193.168 21.5107 195.237 20.9775 197.623 20.9775C199.222 20.9775 200.632 21.2511 201.853 21.7983C203.073 22.3455 204.006 23.04 204.652 23.8818V21.4826H210.881V44.633H204.652V42.3179ZM203.179 28.3225C202.028 27.1018 200.485 26.4915 198.549 26.4915C196.584 26.4915 195.034 27.1018 193.897 28.3225C192.761 29.5431 192.193 31.1216 192.193 33.0578C192.193 34.9379 192.775 36.4953 193.94 37.73C195.104 38.9646 196.64 39.582 198.549 39.582C200.513 39.582 202.063 38.9997 203.2 37.8352C204.336 36.6707 204.904 35.0782 204.904 33.0578C204.904 31.1216 204.329 29.5431 203.179 28.3225ZM236.494 23.6293C237.939 25.341 238.662 27.7823 238.662 30.9532V44.633H232.222V30.9532C232.222 27.8384 230.735 26.281 227.76 26.281C226.61 26.281 225.571 26.737 224.645 27.649C223.719 28.561 223.284 30.1394 223.341 32.3843V44.633H217.069V21.4826H223.341V23.5451C224.098 22.7874 225.052 22.1841 226.203 21.7352C227.353 21.2862 228.462 21.0617 229.528 21.0617C232.727 21.0617 235.049 21.9176 236.494 23.6293ZM256.13 41.5603L259.413 37.1828C260.423 37.8843 261.602 38.4736 262.949 38.9506C264.296 39.4276 265.614 39.6662 266.905 39.6662C267.859 39.6662 268.652 39.4697 269.283 39.0769C269.915 38.684 270.231 38.193 270.231 37.6037C270.231 37.0144 269.873 36.6005 269.157 36.362C268.442 36.1235 267.747 35.9551 267.074 35.8569C266.4 35.7587 265.965 35.6955 265.769 35.6675C264.085 35.3869 262.633 35.0501 261.412 34.6573C260.192 34.2644 259.083 33.5629 258.087 32.5527C257.091 31.5425 256.593 30.1535 256.593 28.3856C256.593 25.4673 257.652 23.517 259.771 22.5349C261.889 21.5528 264.015 21.0617 266.148 21.0617C267.972 21.0617 269.655 21.3283 271.199 21.8614C272.742 22.3946 274.271 23.2364 275.787 24.3869L272.503 28.6803C271.409 28.0349 270.329 27.5157 269.262 27.1229C268.196 26.73 267.088 26.5336 265.937 26.5336C265.236 26.5336 264.555 26.6879 263.896 26.9966C263.236 27.3053 262.907 27.7262 262.907 28.2594C262.907 28.9328 263.363 29.4099 264.275 29.6905C265.187 29.9711 266.19 30.1815 267.284 30.3218C269.248 30.6586 270.82 31.0093 271.998 31.3741C273.177 31.7389 274.222 32.4194 275.134 33.4156C276.046 34.4117 276.502 35.8218 276.502 37.6458C276.502 40.059 275.674 41.9181 274.019 43.2229C272.363 44.5277 270.02 45.1802 266.989 45.1802C262.78 45.1802 259.16 43.9735 256.13 41.5603ZM289.298 36.383C289.298 37.3652 289.466 38.1859 289.803 38.8454C290.14 39.5048 290.926 39.8345 292.16 39.8345C292.721 39.8345 293.255 39.8065 293.76 39.7504V45.0539C292.75 45.1661 291.809 45.2223 290.94 45.2223C289.144 45.2223 287.692 45.0749 286.583 44.7803C285.475 44.4857 284.612 43.9174 283.994 43.0756C283.377 42.2338 283.068 41.0271 283.068 39.4557V26.6178H280.248V21.1038H283.068V14.9163H289.298V21.1038H293.928V26.6178H289.298V36.383ZM303.925 43.5596C302.003 42.4793 300.48 41.0131 299.358 39.1611C298.235 37.309 297.674 35.2886 297.674 33.0999C297.674 30.9392 298.235 28.9328 299.358 27.0808C300.48 25.2288 302.003 23.7626 303.925 22.6822C305.847 21.6019 307.945 21.0617 310.218 21.0617C312.49 21.0617 314.595 21.6019 316.531 22.6822C318.467 23.7626 320.004 25.2288 321.14 27.0808C322.277 28.9328 322.845 30.9392 322.845 33.0999C322.845 35.2886 322.277 37.309 321.14 39.1611C320.004 41.0131 318.467 42.4793 316.531 43.5596C314.595 44.64 312.49 45.1802 310.218 45.1802C307.945 45.1802 305.847 44.64 303.925 43.5596ZM307.019 27.4386C306.036 28.0138 305.265 28.7995 304.704 29.7957C304.142 30.7919 303.862 31.8933 303.862 33.0999C303.862 34.3626 304.135 35.4921 304.682 36.4883C305.23 37.4844 305.987 38.2701 306.955 38.8454C307.924 39.4206 309.011 39.7083 310.218 39.7083C311.396 39.7083 312.469 39.4206 313.438 38.8454C314.406 38.2701 315.17 37.4774 315.732 36.4672C316.293 35.457 316.573 34.3346 316.573 33.0999C316.573 31.8933 316.293 30.7919 315.732 29.7957C315.17 28.7995 314.406 28.0138 313.438 27.4386C312.469 26.8633 311.396 26.5757 310.218 26.5757C309.067 26.5757 308.001 26.8633 307.019 27.4386ZM339.008 27.5227C337.802 27.8174 336.693 28.5119 335.683 29.6063C334.673 30.7007 334.168 32.3001 334.168 34.4047V44.633H327.896V21.4826H334.168V24.5553C335.206 23.1803 336.476 22.2473 337.977 21.7562C339.478 21.2651 340.846 21.0336 342.081 21.0617V27.2071C341.239 27.1229 340.215 27.2281 339.008 27.5227ZM362.958 42.3179C362.425 43.0475 361.506 43.6999 360.201 44.2752C358.896 44.8504 357.472 45.1381 355.929 45.1381C353.544 45.1381 351.474 44.6049 349.72 43.5386C347.967 42.4723 346.627 41.0201 345.701 39.1821C344.775 37.3441 344.312 35.3027 344.312 33.0578C344.312 30.8129 344.775 28.7715 345.701 26.9335C346.627 25.0955 347.967 23.6433 349.72 22.577C351.474 21.5107 353.544 20.9775 355.929 20.9775C357.528 20.9775 358.939 21.2511 360.159 21.7983C361.38 22.3455 362.313 23.04 362.958 23.8818V21.4826H369.188V44.633H362.958V42.3179ZM361.485 28.3225C360.335 27.1018 358.791 26.4915 356.855 26.4915C354.891 26.4915 353.34 27.1018 352.204 28.3225C351.067 29.5431 350.499 31.1216 350.499 33.0578C350.499 34.9379 351.081 36.4953 352.246 37.73C353.41 38.9646 354.947 39.582 356.855 39.582C358.819 39.582 360.37 38.9997 361.506 37.8352C362.643 36.6707 363.211 35.0782 363.211 33.0578C363.211 31.1216 362.636 29.5431 361.485 28.3225ZM396.105 50.4627C394.043 52.3848 391.174 53.3459 387.498 53.3459C383.092 53.3459 379.402 52.1814 376.428 49.8523L379.5 45.3906C380.454 46.1483 381.584 46.7656 382.889 47.2427C384.193 47.7197 385.575 47.9582 387.035 47.9582C390.991 47.9582 392.97 46.1623 392.97 42.5705V42.1917C391.286 43.5667 389.125 44.2541 386.487 44.2541C384.046 44.2541 381.899 43.742 380.047 42.7178C378.195 41.6936 376.778 40.2975 375.796 38.5297C374.814 36.7619 374.323 34.8116 374.323 32.679C374.323 30.5183 374.814 28.561 375.796 26.8072C376.778 25.0534 378.188 23.6573 380.026 22.6191C381.864 21.5808 384.018 21.0617 386.487 21.0617C389.125 21.0617 391.286 21.7492 392.97 23.1242V21.4826H399.199V42.5705C399.199 45.9098 398.168 48.5405 396.105 50.4627ZM390.086 38.1298C391.054 37.5826 391.819 36.825 392.38 35.8569C392.942 34.8888 393.222 33.8295 393.222 32.679C393.222 31.5004 392.942 30.4341 392.38 29.48C391.819 28.5259 391.054 27.7753 390.086 27.2281C389.118 26.6809 388.045 26.4073 386.866 26.4073C384.958 26.4073 383.422 27.0036 382.257 28.1962C381.093 29.3888 380.51 30.8831 380.51 32.679C380.51 34.531 381.079 36.0393 382.215 37.2038C383.352 38.3683 384.902 38.9506 386.866 38.9506C388.045 38.9506 389.118 38.677 390.086 38.1298ZM411.343 44.0858C409.42 43.3281 407.772 42.0443 406.397 40.2344C405.022 38.4245 404.334 36.0603 404.334 33.142C404.334 30.2236 405.029 27.8665 406.418 26.0706C407.807 24.2747 409.469 22.9979 411.406 22.2403C413.342 21.4826 415.18 21.1038 416.92 21.1038C418.94 21.1038 420.862 21.5528 422.686 22.4507C424.51 23.3487 426.004 24.6675 427.169 26.4073C428.334 28.1471 428.944 30.2096 429 32.5948C429 33.3244 428.986 33.9557 428.958 34.4889C428.93 35.0221 428.902 35.3588 428.874 35.4991H410.606C410.943 37.1266 411.785 38.2351 413.131 38.8243C414.478 39.4136 415.741 39.7083 416.92 39.7083C418.435 39.7083 419.642 39.4347 420.54 38.8875C421.438 38.3403 422.209 37.7159 422.855 37.0144L427.737 39.8345C425.099 43.4263 421.494 45.2223 416.92 45.2223C415.124 45.2223 413.265 44.8434 411.343 44.0858ZM412.626 27.9016C411.532 28.7574 410.915 29.8027 410.774 31.0374H422.35C422.265 30.3078 421.985 29.6063 421.508 28.9328C421.031 28.2594 420.392 27.7051 419.593 27.2702C418.793 26.8353 417.888 26.6178 416.878 26.6178C415.138 26.6178 413.721 27.0457 412.626 27.9016Z" fill="#111111"/>
    </g>
    <defs>
        <clipPath id="clip0_1028_2">
            <rect width="429" height="66.3325" fill="white"/>
        </clipPath>
    </defs>
</svg>
